<mxfile host="app.diagrams.net" agent="Mozilla/5.0 (Windows NT 10.0; Win64; x64) AppleWebKit/537.36 (KHTML, like Gecko) Chrome/141.0.0.0 Safari/537.36" version="28.2.8" pages="2">
  <diagram name="State Diagram" id="6ALjOzNrcTaf6oZ9hl79">
    <mxGraphModel dx="2683" dy="1319" grid="1" gridSize="10" guides="1" tooltips="1" connect="1" arrows="1" fold="1" page="1" pageScale="1" pageWidth="827" pageHeight="1169" math="0" shadow="0">
      <root>
        <mxCell id="0" />
        <mxCell id="1" parent="0" />
        <mxCell id="A_HkTpEopF1atYTO0Qst-49" value="" style="edgeStyle=orthogonalEdgeStyle;rounded=0;orthogonalLoop=1;jettySize=auto;html=1;" parent="1" source="A_HkTpEopF1atYTO0Qst-2" target="A_HkTpEopF1atYTO0Qst-29" edge="1">
          <mxGeometry relative="1" as="geometry" />
        </mxCell>
        <mxCell id="A_HkTpEopF1atYTO0Qst-2" value="" style="ellipse;html=1;shape=startState;fillColor=#000000;strokeColor=#000000;" parent="1" vertex="1">
          <mxGeometry x="215" y="270" width="30" height="30" as="geometry" />
        </mxCell>
        <mxCell id="A_HkTpEopF1atYTO0Qst-4" value="" style="ellipse;html=1;shape=endState;fillColor=#000000;strokeColor=#000000;" parent="1" vertex="1">
          <mxGeometry x="690" y="705" width="30" height="30" as="geometry" />
        </mxCell>
        <mxCell id="A_HkTpEopF1atYTO0Qst-47" value="" style="edgeStyle=orthogonalEdgeStyle;rounded=0;orthogonalLoop=1;jettySize=auto;html=1;" parent="1" source="A_HkTpEopF1atYTO0Qst-29" target="A_HkTpEopF1atYTO0Qst-32" edge="1">
          <mxGeometry relative="1" as="geometry" />
        </mxCell>
        <mxCell id="A_HkTpEopF1atYTO0Qst-48" value="&lt;font style=&quot;font-size: 14px;&quot;&gt;create order&lt;/font&gt;" style="edgeLabel;html=1;align=center;verticalAlign=middle;resizable=0;points=[];" parent="A_HkTpEopF1atYTO0Qst-47" vertex="1" connectable="0">
          <mxGeometry x="-0.1916" relative="1" as="geometry">
            <mxPoint as="offset" />
          </mxGeometry>
        </mxCell>
        <mxCell id="A_HkTpEopF1atYTO0Qst-29" value="&lt;font style=&quot;font-size: 18px;&quot;&gt;Initial&lt;/font&gt;" style="rounded=1;whiteSpace=wrap;html=1;" parent="1" vertex="1">
          <mxGeometry x="170" y="350" width="120" height="60" as="geometry" />
        </mxCell>
        <mxCell id="A_HkTpEopF1atYTO0Qst-45" value="" style="edgeStyle=orthogonalEdgeStyle;rounded=0;orthogonalLoop=1;jettySize=auto;html=1;" parent="1" source="A_HkTpEopF1atYTO0Qst-32" target="A_HkTpEopF1atYTO0Qst-34" edge="1">
          <mxGeometry relative="1" as="geometry" />
        </mxCell>
        <mxCell id="A_HkTpEopF1atYTO0Qst-46" value="&lt;font style=&quot;font-size: 14px;&quot;&gt;submit&lt;/font&gt;" style="edgeLabel;html=1;align=center;verticalAlign=middle;resizable=0;points=[];" parent="A_HkTpEopF1atYTO0Qst-45" vertex="1" connectable="0">
          <mxGeometry x="-0.0845" y="-1" relative="1" as="geometry">
            <mxPoint x="1" y="-3" as="offset" />
          </mxGeometry>
        </mxCell>
        <mxCell id="A_HkTpEopF1atYTO0Qst-32" value="&lt;font style=&quot;font-size: 18px;&quot;&gt;Create&lt;/font&gt;" style="rounded=1;whiteSpace=wrap;html=1;" parent="1" vertex="1">
          <mxGeometry x="170" y="460" width="120" height="60" as="geometry" />
        </mxCell>
        <mxCell id="A_HkTpEopF1atYTO0Qst-44" style="edgeStyle=orthogonalEdgeStyle;rounded=0;orthogonalLoop=1;jettySize=auto;html=1;" parent="1" source="A_HkTpEopF1atYTO0Qst-34" target="A_HkTpEopF1atYTO0Qst-43" edge="1">
          <mxGeometry relative="1" as="geometry" />
        </mxCell>
        <mxCell id="A_HkTpEopF1atYTO0Qst-52" value="&lt;font style=&quot;font-size: 14px;&quot;&gt;customer.cancel&lt;/font&gt;" style="edgeLabel;html=1;align=center;verticalAlign=middle;resizable=0;points=[];" parent="A_HkTpEopF1atYTO0Qst-44" vertex="1" connectable="0">
          <mxGeometry x="-0.1906" relative="1" as="geometry">
            <mxPoint as="offset" />
          </mxGeometry>
        </mxCell>
        <mxCell id="A_HkTpEopF1atYTO0Qst-50" value="" style="edgeStyle=orthogonalEdgeStyle;rounded=0;orthogonalLoop=1;jettySize=auto;html=1;" parent="1" source="A_HkTpEopF1atYTO0Qst-34" target="A_HkTpEopF1atYTO0Qst-37" edge="1">
          <mxGeometry relative="1" as="geometry" />
        </mxCell>
        <mxCell id="A_HkTpEopF1atYTO0Qst-51" value="&lt;font style=&quot;font-size: 14px;&quot;&gt;payment.success&lt;/font&gt;" style="edgeLabel;html=1;align=center;verticalAlign=middle;resizable=0;points=[];" parent="A_HkTpEopF1atYTO0Qst-50" vertex="1" connectable="0">
          <mxGeometry x="-0.2779" relative="1" as="geometry">
            <mxPoint y="8" as="offset" />
          </mxGeometry>
        </mxCell>
        <mxCell id="A_HkTpEopF1atYTO0Qst-34" value="&lt;font style=&quot;font-size: 14px;&quot;&gt;Payment_Pending&lt;/font&gt;" style="rounded=1;whiteSpace=wrap;html=1;" parent="1" vertex="1">
          <mxGeometry x="170" y="570" width="120" height="60" as="geometry" />
        </mxCell>
        <mxCell id="A_HkTpEopF1atYTO0Qst-59" value="" style="edgeStyle=orthogonalEdgeStyle;rounded=0;orthogonalLoop=1;jettySize=auto;html=1;" parent="1" source="A_HkTpEopF1atYTO0Qst-37" target="A_HkTpEopF1atYTO0Qst-58" edge="1">
          <mxGeometry relative="1" as="geometry" />
        </mxCell>
        <mxCell id="A_HkTpEopF1atYTO0Qst-60" value="&lt;font style=&quot;font-size: 14px;&quot;&gt;reserve stock&lt;/font&gt;" style="edgeLabel;html=1;align=center;verticalAlign=middle;resizable=0;points=[];" parent="A_HkTpEopF1atYTO0Qst-59" vertex="1" connectable="0">
          <mxGeometry x="-0.1654" y="1" relative="1" as="geometry">
            <mxPoint x="-1" as="offset" />
          </mxGeometry>
        </mxCell>
        <mxCell id="A_HkTpEopF1atYTO0Qst-71" value="" style="edgeStyle=orthogonalEdgeStyle;rounded=0;orthogonalLoop=1;jettySize=auto;html=1;" parent="1" source="A_HkTpEopF1atYTO0Qst-37" target="A_HkTpEopF1atYTO0Qst-69" edge="1">
          <mxGeometry relative="1" as="geometry" />
        </mxCell>
        <mxCell id="A_HkTpEopF1atYTO0Qst-72" value="&lt;font style=&quot;font-size: 14px;&quot;&gt;refund /cancel&lt;/font&gt;" style="edgeLabel;html=1;align=center;verticalAlign=middle;resizable=0;points=[];" parent="A_HkTpEopF1atYTO0Qst-71" vertex="1" connectable="0">
          <mxGeometry x="-0.0926" y="3" relative="1" as="geometry">
            <mxPoint as="offset" />
          </mxGeometry>
        </mxCell>
        <mxCell id="A_HkTpEopF1atYTO0Qst-37" value="&lt;font style=&quot;font-size: 18px;&quot;&gt;Paid&lt;/font&gt;" style="rounded=1;whiteSpace=wrap;html=1;" parent="1" vertex="1">
          <mxGeometry x="170" y="690" width="120" height="60" as="geometry" />
        </mxCell>
        <mxCell id="A_HkTpEopF1atYTO0Qst-57" style="edgeStyle=orthogonalEdgeStyle;rounded=0;orthogonalLoop=1;jettySize=auto;html=1;entryX=0.5;entryY=0;entryDx=0;entryDy=0;" parent="1" source="A_HkTpEopF1atYTO0Qst-43" target="A_HkTpEopF1atYTO0Qst-4" edge="1">
          <mxGeometry relative="1" as="geometry" />
        </mxCell>
        <mxCell id="A_HkTpEopF1atYTO0Qst-43" value="&lt;span style=&quot;font-size: 18px;&quot;&gt;Cancelled&lt;/span&gt;" style="rounded=1;whiteSpace=wrap;html=1;" parent="1" vertex="1">
          <mxGeometry x="510" y="570" width="120" height="60" as="geometry" />
        </mxCell>
        <mxCell id="A_HkTpEopF1atYTO0Qst-62" value="" style="edgeStyle=orthogonalEdgeStyle;rounded=0;orthogonalLoop=1;jettySize=auto;html=1;" parent="1" source="A_HkTpEopF1atYTO0Qst-58" target="A_HkTpEopF1atYTO0Qst-61" edge="1">
          <mxGeometry relative="1" as="geometry" />
        </mxCell>
        <mxCell id="A_HkTpEopF1atYTO0Qst-63" value="&lt;font style=&quot;font-size: 14px;&quot;&gt;export&lt;/font&gt;" style="edgeLabel;html=1;align=center;verticalAlign=middle;resizable=0;points=[];" parent="A_HkTpEopF1atYTO0Qst-62" vertex="1" connectable="0">
          <mxGeometry x="-0.3799" y="-4" relative="1" as="geometry">
            <mxPoint x="4" y="12" as="offset" />
          </mxGeometry>
        </mxCell>
        <mxCell id="A_HkTpEopF1atYTO0Qst-58" value="&lt;font style=&quot;font-size: 18px;&quot;&gt;Allocated&lt;/font&gt;" style="rounded=1;whiteSpace=wrap;html=1;" parent="1" vertex="1">
          <mxGeometry x="170" y="810" width="120" height="60" as="geometry" />
        </mxCell>
        <mxCell id="A_HkTpEopF1atYTO0Qst-65" value="" style="edgeStyle=orthogonalEdgeStyle;rounded=0;orthogonalLoop=1;jettySize=auto;html=1;" parent="1" source="A_HkTpEopF1atYTO0Qst-61" target="A_HkTpEopF1atYTO0Qst-64" edge="1">
          <mxGeometry relative="1" as="geometry" />
        </mxCell>
        <mxCell id="A_HkTpEopF1atYTO0Qst-61" value="&lt;font style=&quot;font-size: 18px;&quot;&gt;Exported&lt;/font&gt;" style="rounded=1;whiteSpace=wrap;html=1;" parent="1" vertex="1">
          <mxGeometry x="170" y="930" width="120" height="60" as="geometry" />
        </mxCell>
        <mxCell id="A_HkTpEopF1atYTO0Qst-67" value="" style="edgeStyle=orthogonalEdgeStyle;rounded=0;orthogonalLoop=1;jettySize=auto;html=1;" parent="1" source="A_HkTpEopF1atYTO0Qst-64" target="A_HkTpEopF1atYTO0Qst-66" edge="1">
          <mxGeometry relative="1" as="geometry" />
        </mxCell>
        <mxCell id="A_HkTpEopF1atYTO0Qst-64" value="&lt;font style=&quot;font-size: 18px;&quot;&gt;Delivered&lt;/font&gt;" style="rounded=1;whiteSpace=wrap;html=1;" parent="1" vertex="1">
          <mxGeometry x="340" y="930" width="120" height="60" as="geometry" />
        </mxCell>
        <mxCell id="A_HkTpEopF1atYTO0Qst-68" style="edgeStyle=orthogonalEdgeStyle;rounded=0;orthogonalLoop=1;jettySize=auto;html=1;entryX=0.5;entryY=1;entryDx=0;entryDy=0;" parent="1" source="A_HkTpEopF1atYTO0Qst-66" target="A_HkTpEopF1atYTO0Qst-4" edge="1">
          <mxGeometry relative="1" as="geometry" />
        </mxCell>
        <mxCell id="A_HkTpEopF1atYTO0Qst-66" value="&lt;font style=&quot;font-size: 18px;&quot;&gt;Completed&lt;/font&gt;" style="rounded=1;whiteSpace=wrap;html=1;" parent="1" vertex="1">
          <mxGeometry x="510" y="930" width="120" height="60" as="geometry" />
        </mxCell>
        <mxCell id="A_HkTpEopF1atYTO0Qst-70" style="edgeStyle=orthogonalEdgeStyle;rounded=0;orthogonalLoop=1;jettySize=auto;html=1;entryX=0;entryY=0.5;entryDx=0;entryDy=0;" parent="1" source="A_HkTpEopF1atYTO0Qst-69" target="A_HkTpEopF1atYTO0Qst-4" edge="1">
          <mxGeometry relative="1" as="geometry" />
        </mxCell>
        <mxCell id="A_HkTpEopF1atYTO0Qst-69" value="&lt;span style=&quot;font-size: 18px;&quot;&gt;Cancelled&lt;/span&gt;" style="rounded=1;whiteSpace=wrap;html=1;" parent="1" vertex="1">
          <mxGeometry x="510" y="690" width="120" height="60" as="geometry" />
        </mxCell>
        <mxCell id="A_HkTpEopF1atYTO0Qst-115" value="" style="edgeStyle=orthogonalEdgeStyle;rounded=0;orthogonalLoop=1;jettySize=auto;html=1;" parent="1" source="A_HkTpEopF1atYTO0Qst-109" target="A_HkTpEopF1atYTO0Qst-114" edge="1">
          <mxGeometry relative="1" as="geometry" />
        </mxCell>
        <mxCell id="A_HkTpEopF1atYTO0Qst-109" value="" style="ellipse;html=1;shape=startState;fillColor=#000000;strokeColor=#000000;" parent="1" vertex="1">
          <mxGeometry x="395" y="1240" width="30" height="30" as="geometry" />
        </mxCell>
        <mxCell id="A_HkTpEopF1atYTO0Qst-110" value="&lt;font style=&quot;font-size: 36px;&quot;&gt;&lt;b&gt;Order State&lt;/b&gt;&lt;/font&gt;" style="text;html=1;whiteSpace=wrap;strokeColor=none;fillColor=none;align=center;verticalAlign=middle;rounded=0;" parent="1" vertex="1">
          <mxGeometry x="160" y="170" width="200" height="30" as="geometry" />
        </mxCell>
        <mxCell id="A_HkTpEopF1atYTO0Qst-111" value="&lt;font style=&quot;font-size: 36px;&quot;&gt;&lt;b&gt;CashOut&lt;/b&gt;&lt;/font&gt;" style="text;html=1;whiteSpace=wrap;strokeColor=none;fillColor=none;align=center;verticalAlign=middle;rounded=0;" parent="1" vertex="1">
          <mxGeometry x="160" y="1169" width="150" height="30" as="geometry" />
        </mxCell>
        <mxCell id="A_HkTpEopF1atYTO0Qst-113" value="" style="ellipse;html=1;shape=endState;fillColor=#000000;strokeColor=#000000;" parent="1" vertex="1">
          <mxGeometry x="615" y="1705" width="30" height="30" as="geometry" />
        </mxCell>
        <mxCell id="A_HkTpEopF1atYTO0Qst-117" value="" style="edgeStyle=orthogonalEdgeStyle;rounded=0;orthogonalLoop=1;jettySize=auto;html=1;" parent="1" source="A_HkTpEopF1atYTO0Qst-114" target="A_HkTpEopF1atYTO0Qst-116" edge="1">
          <mxGeometry relative="1" as="geometry" />
        </mxCell>
        <mxCell id="A_HkTpEopF1atYTO0Qst-118" value="&lt;font style=&quot;font-size: 14px;&quot;&gt;vendor.request&lt;/font&gt;" style="edgeLabel;html=1;align=center;verticalAlign=middle;resizable=0;points=[];" parent="A_HkTpEopF1atYTO0Qst-117" vertex="1" connectable="0">
          <mxGeometry x="-0.3524" y="-3" relative="1" as="geometry">
            <mxPoint x="3" y="1" as="offset" />
          </mxGeometry>
        </mxCell>
        <mxCell id="A_HkTpEopF1atYTO0Qst-114" value="&lt;font style=&quot;font-size: 18px;&quot;&gt;Initial&lt;/font&gt;" style="rounded=1;whiteSpace=wrap;html=1;" parent="1" vertex="1">
          <mxGeometry x="350" y="1310" width="120" height="60" as="geometry" />
        </mxCell>
        <mxCell id="A_HkTpEopF1atYTO0Qst-120" value="" style="edgeStyle=orthogonalEdgeStyle;rounded=0;orthogonalLoop=1;jettySize=auto;html=1;" parent="1" source="A_HkTpEopF1atYTO0Qst-116" target="A_HkTpEopF1atYTO0Qst-119" edge="1">
          <mxGeometry relative="1" as="geometry" />
        </mxCell>
        <mxCell id="A_HkTpEopF1atYTO0Qst-121" value="&lt;font style=&quot;font-size: 14px;&quot;&gt;queue&lt;/font&gt;" style="edgeLabel;html=1;align=center;verticalAlign=middle;resizable=0;points=[];" parent="A_HkTpEopF1atYTO0Qst-120" vertex="1" connectable="0">
          <mxGeometry x="-0.2313" y="1" relative="1" as="geometry">
            <mxPoint as="offset" />
          </mxGeometry>
        </mxCell>
        <mxCell id="A_HkTpEopF1atYTO0Qst-116" value="&lt;font style=&quot;font-size: 18px;&quot;&gt;Requested&lt;/font&gt;" style="rounded=1;whiteSpace=wrap;html=1;" parent="1" vertex="1">
          <mxGeometry x="350" y="1445" width="120" height="60" as="geometry" />
        </mxCell>
        <mxCell id="A_HkTpEopF1atYTO0Qst-123" value="" style="edgeStyle=orthogonalEdgeStyle;rounded=0;orthogonalLoop=1;jettySize=auto;html=1;" parent="1" source="A_HkTpEopF1atYTO0Qst-119" target="A_HkTpEopF1atYTO0Qst-122" edge="1">
          <mxGeometry relative="1" as="geometry" />
        </mxCell>
        <mxCell id="A_HkTpEopF1atYTO0Qst-126" value="&lt;font style=&quot;font-size: 14px;&quot;&gt;reject&lt;/font&gt;" style="edgeLabel;html=1;align=center;verticalAlign=middle;resizable=0;points=[];" parent="A_HkTpEopF1atYTO0Qst-123" vertex="1" connectable="0">
          <mxGeometry x="-0.3172" relative="1" as="geometry">
            <mxPoint as="offset" />
          </mxGeometry>
        </mxCell>
        <mxCell id="A_HkTpEopF1atYTO0Qst-125" value="" style="edgeStyle=orthogonalEdgeStyle;rounded=0;orthogonalLoop=1;jettySize=auto;html=1;" parent="1" source="A_HkTpEopF1atYTO0Qst-119" target="A_HkTpEopF1atYTO0Qst-124" edge="1">
          <mxGeometry relative="1" as="geometry" />
        </mxCell>
        <mxCell id="A_HkTpEopF1atYTO0Qst-129" value="&lt;font style=&quot;font-size: 14px;&quot;&gt;approve&lt;/font&gt;" style="edgeLabel;html=1;align=center;verticalAlign=middle;resizable=0;points=[];" parent="A_HkTpEopF1atYTO0Qst-125" vertex="1" connectable="0">
          <mxGeometry x="-0.2565" y="-2" relative="1" as="geometry">
            <mxPoint as="offset" />
          </mxGeometry>
        </mxCell>
        <mxCell id="A_HkTpEopF1atYTO0Qst-119" value="&lt;font style=&quot;font-size: 14px;&quot;&gt;Under_Review&lt;/font&gt;" style="rounded=1;whiteSpace=wrap;html=1;" parent="1" vertex="1">
          <mxGeometry x="350" y="1570" width="120" height="60" as="geometry" />
        </mxCell>
        <mxCell id="A_HkTpEopF1atYTO0Qst-140" value="" style="edgeStyle=orthogonalEdgeStyle;rounded=0;orthogonalLoop=1;jettySize=auto;html=1;" parent="1" source="A_HkTpEopF1atYTO0Qst-122" target="A_HkTpEopF1atYTO0Qst-113" edge="1">
          <mxGeometry relative="1" as="geometry" />
        </mxCell>
        <mxCell id="A_HkTpEopF1atYTO0Qst-122" value="&lt;font style=&quot;font-size: 18px;&quot;&gt;Rejected&lt;/font&gt;" style="rounded=1;whiteSpace=wrap;html=1;" parent="1" vertex="1">
          <mxGeometry x="570" y="1570" width="120" height="60" as="geometry" />
        </mxCell>
        <mxCell id="A_HkTpEopF1atYTO0Qst-131" value="" style="edgeStyle=orthogonalEdgeStyle;rounded=0;orthogonalLoop=1;jettySize=auto;html=1;" parent="1" source="A_HkTpEopF1atYTO0Qst-124" target="A_HkTpEopF1atYTO0Qst-130" edge="1">
          <mxGeometry relative="1" as="geometry" />
        </mxCell>
        <mxCell id="A_HkTpEopF1atYTO0Qst-132" value="&lt;font style=&quot;font-size: 14px;&quot;&gt;finance.payout&lt;/font&gt;" style="edgeLabel;html=1;align=center;verticalAlign=middle;resizable=0;points=[];" parent="A_HkTpEopF1atYTO0Qst-131" vertex="1" connectable="0">
          <mxGeometry x="-0.2784" y="1" relative="1" as="geometry">
            <mxPoint as="offset" />
          </mxGeometry>
        </mxCell>
        <mxCell id="A_HkTpEopF1atYTO0Qst-124" value="&lt;font style=&quot;font-size: 18px;&quot;&gt;Approved&lt;/font&gt;" style="rounded=1;whiteSpace=wrap;html=1;" parent="1" vertex="1">
          <mxGeometry x="350" y="1690" width="120" height="60" as="geometry" />
        </mxCell>
        <mxCell id="A_HkTpEopF1atYTO0Qst-134" value="" style="edgeStyle=orthogonalEdgeStyle;rounded=0;orthogonalLoop=1;jettySize=auto;html=1;" parent="1" source="A_HkTpEopF1atYTO0Qst-130" target="A_HkTpEopF1atYTO0Qst-133" edge="1">
          <mxGeometry relative="1" as="geometry" />
        </mxCell>
        <mxCell id="A_HkTpEopF1atYTO0Qst-142" value="&lt;font style=&quot;font-size: 14px;&quot;&gt;fail&lt;/font&gt;" style="edgeLabel;html=1;align=center;verticalAlign=middle;resizable=0;points=[];" parent="A_HkTpEopF1atYTO0Qst-134" vertex="1" connectable="0">
          <mxGeometry x="-0.2035" y="1" relative="1" as="geometry">
            <mxPoint as="offset" />
          </mxGeometry>
        </mxCell>
        <mxCell id="A_HkTpEopF1atYTO0Qst-138" value="" style="edgeStyle=orthogonalEdgeStyle;rounded=0;orthogonalLoop=1;jettySize=auto;html=1;" parent="1" source="A_HkTpEopF1atYTO0Qst-130" target="A_HkTpEopF1atYTO0Qst-137" edge="1">
          <mxGeometry relative="1" as="geometry" />
        </mxCell>
        <mxCell id="A_HkTpEopF1atYTO0Qst-141" value="&lt;font style=&quot;font-size: 14px;&quot;&gt;success&lt;/font&gt;" style="edgeLabel;html=1;align=center;verticalAlign=middle;resizable=0;points=[];" parent="A_HkTpEopF1atYTO0Qst-138" vertex="1" connectable="0">
          <mxGeometry x="0.025" y="1" relative="1" as="geometry">
            <mxPoint as="offset" />
          </mxGeometry>
        </mxCell>
        <mxCell id="A_HkTpEopF1atYTO0Qst-130" value="&lt;font style=&quot;font-size: 12px;&quot;&gt;Payout_Processing&lt;/font&gt;" style="rounded=1;whiteSpace=wrap;html=1;" parent="1" vertex="1">
          <mxGeometry x="350" y="1820" width="120" height="60" as="geometry" />
        </mxCell>
        <mxCell id="A_HkTpEopF1atYTO0Qst-136" style="edgeStyle=orthogonalEdgeStyle;rounded=0;orthogonalLoop=1;jettySize=auto;html=1;exitX=0.5;exitY=0;exitDx=0;exitDy=0;entryX=0;entryY=0.5;entryDx=0;entryDy=0;" parent="1" source="A_HkTpEopF1atYTO0Qst-133" target="A_HkTpEopF1atYTO0Qst-119" edge="1">
          <mxGeometry relative="1" as="geometry" />
        </mxCell>
        <mxCell id="A_HkTpEopF1atYTO0Qst-143" value="&lt;font style=&quot;font-size: 14px;&quot;&gt;retry&lt;/font&gt;" style="edgeLabel;html=1;align=center;verticalAlign=middle;resizable=0;points=[];" parent="A_HkTpEopF1atYTO0Qst-136" vertex="1" connectable="0">
          <mxGeometry x="-0.2341" y="1" relative="1" as="geometry">
            <mxPoint as="offset" />
          </mxGeometry>
        </mxCell>
        <mxCell id="A_HkTpEopF1atYTO0Qst-133" value="&lt;font style=&quot;font-size: 12px;&quot;&gt;Payout_Failed&lt;/font&gt;" style="rounded=1;whiteSpace=wrap;html=1;" parent="1" vertex="1">
          <mxGeometry x="170" y="1740" width="120" height="60" as="geometry" />
        </mxCell>
        <mxCell id="A_HkTpEopF1atYTO0Qst-139" value="" style="edgeStyle=orthogonalEdgeStyle;rounded=0;orthogonalLoop=1;jettySize=auto;html=1;" parent="1" source="A_HkTpEopF1atYTO0Qst-137" target="A_HkTpEopF1atYTO0Qst-113" edge="1">
          <mxGeometry relative="1" as="geometry" />
        </mxCell>
        <mxCell id="A_HkTpEopF1atYTO0Qst-137" value="&lt;font style=&quot;font-size: 12px;&quot;&gt;Payout_Succeeded&lt;/font&gt;" style="rounded=1;whiteSpace=wrap;html=1;" parent="1" vertex="1">
          <mxGeometry x="570" y="1820" width="120" height="60" as="geometry" />
        </mxCell>
        <mxCell id="A_HkTpEopF1atYTO0Qst-144" value="&lt;font style=&quot;font-size: 36px;&quot;&gt;&lt;b&gt;Product Registration&lt;/b&gt;&lt;/font&gt;" style="text;html=1;whiteSpace=wrap;strokeColor=none;fillColor=none;align=center;verticalAlign=middle;rounded=0;" parent="1" vertex="1">
          <mxGeometry x="1120" y="170" width="360" height="30" as="geometry" />
        </mxCell>
        <mxCell id="A_HkTpEopF1atYTO0Qst-150" value="" style="edgeStyle=orthogonalEdgeStyle;rounded=0;orthogonalLoop=1;jettySize=auto;html=1;" parent="1" source="A_HkTpEopF1atYTO0Qst-145" target="A_HkTpEopF1atYTO0Qst-149" edge="1">
          <mxGeometry relative="1" as="geometry" />
        </mxCell>
        <mxCell id="A_HkTpEopF1atYTO0Qst-145" value="" style="ellipse;html=1;shape=startState;fillColor=#000000;strokeColor=#000000;" parent="1" vertex="1">
          <mxGeometry x="1341" y="265" width="30" height="30" as="geometry" />
        </mxCell>
        <mxCell id="A_HkTpEopF1atYTO0Qst-152" value="" style="edgeStyle=orthogonalEdgeStyle;rounded=0;orthogonalLoop=1;jettySize=auto;html=1;" parent="1" source="A_HkTpEopF1atYTO0Qst-149" target="A_HkTpEopF1atYTO0Qst-151" edge="1">
          <mxGeometry relative="1" as="geometry" />
        </mxCell>
        <mxCell id="A_HkTpEopF1atYTO0Qst-153" value="&lt;font style=&quot;font-size: 14px;&quot;&gt;vendor.register&lt;/font&gt;" style="edgeLabel;html=1;align=center;verticalAlign=middle;resizable=0;points=[];" parent="A_HkTpEopF1atYTO0Qst-152" vertex="1" connectable="0">
          <mxGeometry x="-0.292" y="-2" relative="1" as="geometry">
            <mxPoint x="1" y="5" as="offset" />
          </mxGeometry>
        </mxCell>
        <mxCell id="A_HkTpEopF1atYTO0Qst-149" value="&lt;font style=&quot;font-size: 18px;&quot;&gt;Initial&lt;/font&gt;" style="rounded=1;whiteSpace=wrap;html=1;" parent="1" vertex="1">
          <mxGeometry x="1296" y="345" width="120" height="60" as="geometry" />
        </mxCell>
        <mxCell id="A_HkTpEopF1atYTO0Qst-156" value="" style="edgeStyle=orthogonalEdgeStyle;rounded=0;orthogonalLoop=1;jettySize=auto;html=1;" parent="1" source="A_HkTpEopF1atYTO0Qst-151" target="A_HkTpEopF1atYTO0Qst-155" edge="1">
          <mxGeometry relative="1" as="geometry" />
        </mxCell>
        <mxCell id="A_HkTpEopF1atYTO0Qst-157" value="&lt;font style=&quot;font-size: 14px;&quot;&gt;staff.pickup&lt;/font&gt;" style="edgeLabel;html=1;align=center;verticalAlign=middle;resizable=0;points=[];" parent="A_HkTpEopF1atYTO0Qst-156" vertex="1" connectable="0">
          <mxGeometry x="-0.2479" y="-1" relative="1" as="geometry">
            <mxPoint as="offset" />
          </mxGeometry>
        </mxCell>
        <mxCell id="A_HkTpEopF1atYTO0Qst-151" value="&lt;font style=&quot;font-size: 18px;&quot;&gt;Submitted&lt;/font&gt;" style="rounded=1;whiteSpace=wrap;html=1;" parent="1" vertex="1">
          <mxGeometry x="1296" y="475" width="120" height="60" as="geometry" />
        </mxCell>
        <mxCell id="A_HkTpEopF1atYTO0Qst-161" value="" style="edgeStyle=orthogonalEdgeStyle;rounded=0;orthogonalLoop=1;jettySize=auto;html=1;" parent="1" source="A_HkTpEopF1atYTO0Qst-155" target="A_HkTpEopF1atYTO0Qst-159" edge="1">
          <mxGeometry relative="1" as="geometry" />
        </mxCell>
        <mxCell id="A_HkTpEopF1atYTO0Qst-165" value="&lt;font style=&quot;font-size: 14px;&quot;&gt;reject&lt;/font&gt;" style="edgeLabel;html=1;align=center;verticalAlign=middle;resizable=0;points=[];" parent="A_HkTpEopF1atYTO0Qst-161" vertex="1" connectable="0">
          <mxGeometry x="-0.49" y="1" relative="1" as="geometry">
            <mxPoint as="offset" />
          </mxGeometry>
        </mxCell>
        <mxCell id="A_HkTpEopF1atYTO0Qst-163" value="" style="edgeStyle=orthogonalEdgeStyle;rounded=0;orthogonalLoop=1;jettySize=auto;html=1;" parent="1" source="A_HkTpEopF1atYTO0Qst-155" target="A_HkTpEopF1atYTO0Qst-162" edge="1">
          <mxGeometry relative="1" as="geometry" />
        </mxCell>
        <mxCell id="A_HkTpEopF1atYTO0Qst-164" value="&lt;font style=&quot;font-size: 14px;&quot;&gt;approve&lt;/font&gt;" style="edgeLabel;html=1;align=center;verticalAlign=middle;resizable=0;points=[];" parent="A_HkTpEopF1atYTO0Qst-163" vertex="1" connectable="0">
          <mxGeometry x="-0.3619" y="1" relative="1" as="geometry">
            <mxPoint x="9" y="-1" as="offset" />
          </mxGeometry>
        </mxCell>
        <mxCell id="A_HkTpEopF1atYTO0Qst-155" value="&lt;font style=&quot;font-size: 18px;&quot;&gt;Reviewing&lt;/font&gt;" style="rounded=1;whiteSpace=wrap;html=1;" parent="1" vertex="1">
          <mxGeometry x="1296" y="605" width="120" height="60" as="geometry" />
        </mxCell>
        <mxCell id="A_HkTpEopF1atYTO0Qst-169" value="" style="edgeStyle=orthogonalEdgeStyle;rounded=0;orthogonalLoop=1;jettySize=auto;html=1;" parent="1" source="A_HkTpEopF1atYTO0Qst-159" target="A_HkTpEopF1atYTO0Qst-160" edge="1">
          <mxGeometry relative="1" as="geometry" />
        </mxCell>
        <mxCell id="A_HkTpEopF1atYTO0Qst-159" value="&lt;font style=&quot;font-size: 18px;&quot;&gt;Rejected&lt;/font&gt;" style="rounded=1;whiteSpace=wrap;html=1;" parent="1" vertex="1">
          <mxGeometry x="1430" y="700" width="120" height="60" as="geometry" />
        </mxCell>
        <mxCell id="A_HkTpEopF1atYTO0Qst-160" value="" style="ellipse;html=1;shape=endState;fillColor=#000000;strokeColor=#000000;" parent="1" vertex="1">
          <mxGeometry x="1475" y="855" width="30" height="30" as="geometry" />
        </mxCell>
        <mxCell id="A_HkTpEopF1atYTO0Qst-167" value="" style="edgeStyle=orthogonalEdgeStyle;rounded=0;orthogonalLoop=1;jettySize=auto;html=1;" parent="1" source="A_HkTpEopF1atYTO0Qst-162" target="A_HkTpEopF1atYTO0Qst-166" edge="1">
          <mxGeometry relative="1" as="geometry" />
        </mxCell>
        <mxCell id="A_HkTpEopF1atYTO0Qst-168" value="&lt;font style=&quot;font-size: 14px;&quot;&gt;publish product&lt;/font&gt;" style="edgeLabel;html=1;align=center;verticalAlign=middle;resizable=0;points=[];" parent="A_HkTpEopF1atYTO0Qst-167" vertex="1" connectable="0">
          <mxGeometry x="-0.2075" relative="1" as="geometry">
            <mxPoint as="offset" />
          </mxGeometry>
        </mxCell>
        <mxCell id="A_HkTpEopF1atYTO0Qst-162" value="&lt;font style=&quot;font-size: 18px;&quot;&gt;Approved&lt;/font&gt;" style="rounded=1;whiteSpace=wrap;html=1;" parent="1" vertex="1">
          <mxGeometry x="1160" y="700" width="120" height="60" as="geometry" />
        </mxCell>
        <mxCell id="A_HkTpEopF1atYTO0Qst-171" value="" style="edgeStyle=orthogonalEdgeStyle;rounded=0;orthogonalLoop=1;jettySize=auto;html=1;" parent="1" source="A_HkTpEopF1atYTO0Qst-166" target="A_HkTpEopF1atYTO0Qst-160" edge="1">
          <mxGeometry relative="1" as="geometry" />
        </mxCell>
        <mxCell id="A_HkTpEopF1atYTO0Qst-173" value="" style="edgeStyle=orthogonalEdgeStyle;rounded=0;orthogonalLoop=1;jettySize=auto;html=1;" parent="1" source="A_HkTpEopF1atYTO0Qst-166" target="A_HkTpEopF1atYTO0Qst-172" edge="1">
          <mxGeometry relative="1" as="geometry" />
        </mxCell>
        <mxCell id="A_HkTpEopF1atYTO0Qst-175" value="&lt;font style=&quot;font-size: 14px;&quot;&gt;admin.revoke&lt;/font&gt;" style="edgeLabel;html=1;align=center;verticalAlign=middle;resizable=0;points=[];" parent="A_HkTpEopF1atYTO0Qst-173" vertex="1" connectable="0">
          <mxGeometry x="-0.4063" y="1" relative="1" as="geometry">
            <mxPoint x="-1" y="6" as="offset" />
          </mxGeometry>
        </mxCell>
        <mxCell id="A_HkTpEopF1atYTO0Qst-166" value="&lt;font style=&quot;font-size: 18px;&quot;&gt;Published&lt;/font&gt;" style="rounded=1;whiteSpace=wrap;html=1;" parent="1" vertex="1">
          <mxGeometry x="1160" y="840" width="120" height="60" as="geometry" />
        </mxCell>
        <mxCell id="A_HkTpEopF1atYTO0Qst-174" style="edgeStyle=orthogonalEdgeStyle;rounded=0;orthogonalLoop=1;jettySize=auto;html=1;entryX=0.5;entryY=1;entryDx=0;entryDy=0;" parent="1" source="A_HkTpEopF1atYTO0Qst-172" target="A_HkTpEopF1atYTO0Qst-160" edge="1">
          <mxGeometry relative="1" as="geometry" />
        </mxCell>
        <mxCell id="A_HkTpEopF1atYTO0Qst-172" value="&lt;font style=&quot;font-size: 18px;&quot;&gt;Revoked&lt;/font&gt;" style="rounded=1;whiteSpace=wrap;html=1;" parent="1" vertex="1">
          <mxGeometry x="1160" y="980" width="120" height="60" as="geometry" />
        </mxCell>
        <mxCell id="pmxPIZ2gJV4sTTU1Cnt6-4" value="" style="edgeStyle=orthogonalEdgeStyle;rounded=0;orthogonalLoop=1;jettySize=auto;html=1;" parent="1" source="pmxPIZ2gJV4sTTU1Cnt6-1" target="pmxPIZ2gJV4sTTU1Cnt6-3" edge="1">
          <mxGeometry relative="1" as="geometry" />
        </mxCell>
        <mxCell id="pmxPIZ2gJV4sTTU1Cnt6-1" value="" style="ellipse;html=1;shape=startState;fillColor=#000000;strokeColor=#000000;" parent="1" vertex="1">
          <mxGeometry x="1386" y="1230" width="30" height="30" as="geometry" />
        </mxCell>
        <mxCell id="pmxPIZ2gJV4sTTU1Cnt6-2" value="&lt;font style=&quot;font-size: 36px;&quot;&gt;&lt;b&gt;Request&lt;/b&gt;&lt;/font&gt;" style="text;html=1;whiteSpace=wrap;strokeColor=none;fillColor=none;align=center;verticalAlign=middle;rounded=0;" parent="1" vertex="1">
          <mxGeometry x="1160" y="1169" width="150" height="30" as="geometry" />
        </mxCell>
        <mxCell id="pmxPIZ2gJV4sTTU1Cnt6-6" value="" style="edgeStyle=orthogonalEdgeStyle;rounded=0;orthogonalLoop=1;jettySize=auto;html=1;" parent="1" source="pmxPIZ2gJV4sTTU1Cnt6-3" target="pmxPIZ2gJV4sTTU1Cnt6-5" edge="1">
          <mxGeometry relative="1" as="geometry" />
        </mxCell>
        <mxCell id="pmxPIZ2gJV4sTTU1Cnt6-7" value="&lt;font style=&quot;font-size: 14px;&quot;&gt;create request&lt;/font&gt;" style="edgeLabel;html=1;align=center;verticalAlign=middle;resizable=0;points=[];" parent="pmxPIZ2gJV4sTTU1Cnt6-6" vertex="1" connectable="0">
          <mxGeometry x="-0.2811" y="1" relative="1" as="geometry">
            <mxPoint as="offset" />
          </mxGeometry>
        </mxCell>
        <mxCell id="pmxPIZ2gJV4sTTU1Cnt6-3" value="&lt;font style=&quot;font-size: 18px;&quot;&gt;Initial&lt;/font&gt;" style="rounded=1;whiteSpace=wrap;html=1;" parent="1" vertex="1">
          <mxGeometry x="1341" y="1320" width="120" height="60" as="geometry" />
        </mxCell>
        <mxCell id="pmxPIZ2gJV4sTTU1Cnt6-9" value="" style="edgeStyle=orthogonalEdgeStyle;rounded=0;orthogonalLoop=1;jettySize=auto;html=1;" parent="1" source="pmxPIZ2gJV4sTTU1Cnt6-5" target="pmxPIZ2gJV4sTTU1Cnt6-8" edge="1">
          <mxGeometry relative="1" as="geometry" />
        </mxCell>
        <mxCell id="pmxPIZ2gJV4sTTU1Cnt6-10" value="&lt;font style=&quot;font-size: 14px;&quot;&gt;assign&lt;/font&gt;" style="edgeLabel;html=1;align=center;verticalAlign=middle;resizable=0;points=[];" parent="pmxPIZ2gJV4sTTU1Cnt6-9" vertex="1" connectable="0">
          <mxGeometry x="-0.3456" y="1" relative="1" as="geometry">
            <mxPoint as="offset" />
          </mxGeometry>
        </mxCell>
        <mxCell id="MKfFxVmuB2pTOVvT9oGr-3" style="edgeStyle=orthogonalEdgeStyle;rounded=0;orthogonalLoop=1;jettySize=auto;html=1;exitX=0;exitY=0.5;exitDx=0;exitDy=0;entryX=0.5;entryY=0;entryDx=0;entryDy=0;" parent="1" source="pmxPIZ2gJV4sTTU1Cnt6-5" target="MKfFxVmuB2pTOVvT9oGr-1" edge="1">
          <mxGeometry relative="1" as="geometry" />
        </mxCell>
        <mxCell id="MKfFxVmuB2pTOVvT9oGr-4" value="cancel" style="edgeLabel;html=1;align=center;verticalAlign=middle;resizable=0;points=[];" parent="MKfFxVmuB2pTOVvT9oGr-3" vertex="1" connectable="0">
          <mxGeometry x="-0.4943" y="-3" relative="1" as="geometry">
            <mxPoint x="-21" y="3" as="offset" />
          </mxGeometry>
        </mxCell>
        <mxCell id="pmxPIZ2gJV4sTTU1Cnt6-5" value="&lt;font style=&quot;font-size: 18px;&quot;&gt;Pending&lt;/font&gt;" style="rounded=1;whiteSpace=wrap;html=1;" parent="1" vertex="1">
          <mxGeometry x="1341" y="1445" width="120" height="60" as="geometry" />
        </mxCell>
        <mxCell id="pmxPIZ2gJV4sTTU1Cnt6-15" value="" style="edgeStyle=orthogonalEdgeStyle;rounded=0;orthogonalLoop=1;jettySize=auto;html=1;" parent="1" source="pmxPIZ2gJV4sTTU1Cnt6-8" target="pmxPIZ2gJV4sTTU1Cnt6-12" edge="1">
          <mxGeometry relative="1" as="geometry" />
        </mxCell>
        <mxCell id="MKfFxVmuB2pTOVvT9oGr-5" value="reject" style="edgeLabel;html=1;align=center;verticalAlign=middle;resizable=0;points=[];" parent="pmxPIZ2gJV4sTTU1Cnt6-15" vertex="1" connectable="0">
          <mxGeometry x="-0.5076" y="1" relative="1" as="geometry">
            <mxPoint as="offset" />
          </mxGeometry>
        </mxCell>
        <mxCell id="pmxPIZ2gJV4sTTU1Cnt6-19" value="" style="edgeStyle=orthogonalEdgeStyle;rounded=0;orthogonalLoop=1;jettySize=auto;html=1;" parent="1" source="pmxPIZ2gJV4sTTU1Cnt6-8" target="pmxPIZ2gJV4sTTU1Cnt6-18" edge="1">
          <mxGeometry relative="1" as="geometry" />
        </mxCell>
        <mxCell id="MKfFxVmuB2pTOVvT9oGr-6" value="approve" style="edgeLabel;html=1;align=center;verticalAlign=middle;resizable=0;points=[];" parent="pmxPIZ2gJV4sTTU1Cnt6-19" vertex="1" connectable="0">
          <mxGeometry x="-0.2253" y="-2" relative="1" as="geometry">
            <mxPoint as="offset" />
          </mxGeometry>
        </mxCell>
        <mxCell id="pmxPIZ2gJV4sTTU1Cnt6-8" value="&lt;font style=&quot;font-size: 18px;&quot;&gt;In_Review&lt;/font&gt;" style="rounded=1;whiteSpace=wrap;html=1;" parent="1" vertex="1">
          <mxGeometry x="1341" y="1570" width="120" height="60" as="geometry" />
        </mxCell>
        <mxCell id="pmxPIZ2gJV4sTTU1Cnt6-16" value="" style="edgeStyle=orthogonalEdgeStyle;rounded=0;orthogonalLoop=1;jettySize=auto;html=1;exitX=0.5;exitY=1;exitDx=0;exitDy=0;entryX=1;entryY=0.5;entryDx=0;entryDy=0;" parent="1" source="pmxPIZ2gJV4sTTU1Cnt6-12" target="pmxPIZ2gJV4sTTU1Cnt6-14" edge="1">
          <mxGeometry relative="1" as="geometry" />
        </mxCell>
        <mxCell id="pmxPIZ2gJV4sTTU1Cnt6-12" value="&lt;font style=&quot;font-size: 18px;&quot;&gt;Rejected &lt;/font&gt;" style="rounded=1;whiteSpace=wrap;html=1;" parent="1" vertex="1">
          <mxGeometry x="1520" y="1694" width="120" height="60" as="geometry" />
        </mxCell>
        <mxCell id="pmxPIZ2gJV4sTTU1Cnt6-14" value="" style="ellipse;html=1;shape=endState;fillColor=#000000;strokeColor=#000000;" parent="1" vertex="1">
          <mxGeometry x="1386" y="1910" width="30" height="30" as="geometry" />
        </mxCell>
        <mxCell id="pmxPIZ2gJV4sTTU1Cnt6-21" value="" style="edgeStyle=orthogonalEdgeStyle;rounded=0;orthogonalLoop=1;jettySize=auto;html=1;" parent="1" source="pmxPIZ2gJV4sTTU1Cnt6-18" target="pmxPIZ2gJV4sTTU1Cnt6-20" edge="1">
          <mxGeometry relative="1" as="geometry" />
        </mxCell>
        <mxCell id="MKfFxVmuB2pTOVvT9oGr-7" value="complete" style="edgeLabel;html=1;align=center;verticalAlign=middle;resizable=0;points=[];" parent="pmxPIZ2gJV4sTTU1Cnt6-21" vertex="1" connectable="0">
          <mxGeometry x="-0.4003" relative="1" as="geometry">
            <mxPoint y="9" as="offset" />
          </mxGeometry>
        </mxCell>
        <mxCell id="pmxPIZ2gJV4sTTU1Cnt6-18" value="&lt;font style=&quot;font-size: 18px;&quot;&gt;Approved&lt;/font&gt;" style="rounded=1;whiteSpace=wrap;html=1;" parent="1" vertex="1">
          <mxGeometry x="1341" y="1694" width="120" height="60" as="geometry" />
        </mxCell>
        <mxCell id="pmxPIZ2gJV4sTTU1Cnt6-22" value="" style="edgeStyle=orthogonalEdgeStyle;rounded=0;orthogonalLoop=1;jettySize=auto;html=1;entryX=0.5;entryY=0;entryDx=0;entryDy=0;" parent="1" source="pmxPIZ2gJV4sTTU1Cnt6-20" target="pmxPIZ2gJV4sTTU1Cnt6-14" edge="1">
          <mxGeometry relative="1" as="geometry">
            <mxPoint x="1401" y="1930" as="targetPoint" />
          </mxGeometry>
        </mxCell>
        <mxCell id="pmxPIZ2gJV4sTTU1Cnt6-20" value="&lt;font style=&quot;font-size: 18px;&quot;&gt;Complete&lt;/font&gt;" style="rounded=1;whiteSpace=wrap;html=1;" parent="1" vertex="1">
          <mxGeometry x="1341" y="1810" width="120" height="60" as="geometry" />
        </mxCell>
        <mxCell id="MKfFxVmuB2pTOVvT9oGr-2" style="edgeStyle=orthogonalEdgeStyle;rounded=0;orthogonalLoop=1;jettySize=auto;html=1;entryX=0;entryY=0.5;entryDx=0;entryDy=0;exitX=0.5;exitY=1;exitDx=0;exitDy=0;" parent="1" source="MKfFxVmuB2pTOVvT9oGr-1" target="pmxPIZ2gJV4sTTU1Cnt6-14" edge="1">
          <mxGeometry relative="1" as="geometry" />
        </mxCell>
        <mxCell id="MKfFxVmuB2pTOVvT9oGr-1" value="&lt;font style=&quot;font-size: 18px;&quot;&gt;Cancelled&lt;/font&gt;" style="rounded=1;whiteSpace=wrap;html=1;" parent="1" vertex="1">
          <mxGeometry x="1130" y="1570" width="120" height="60" as="geometry" />
        </mxCell>
      </root>
    </mxGraphModel>
  </diagram>
  <diagram id="SYIBFX_3cqjQObNfSzEV" name="Trang-3">
    <mxGraphModel dx="6260" dy="3077" grid="1" gridSize="10" guides="1" tooltips="1" connect="1" arrows="1" fold="1" page="1" pageScale="1" pageWidth="827" pageHeight="1169" math="0" shadow="0">
      <root>
        <mxCell id="0" />
        <mxCell id="1" parent="0" />
        <mxCell id="lFggfK0TR-vwUHYJphF_-3" value="" style="group" vertex="1" connectable="0" parent="1">
          <mxGeometry x="190" y="120" width="2070" height="3280" as="geometry" />
        </mxCell>
        <mxCell id="VTS3-1otBFQSeChfBnLC-1" value="Customer" style="swimlane;whiteSpace=wrap;html=1;gradientColor=none;" vertex="1" parent="lFggfK0TR-vwUHYJphF_-3">
          <mxGeometry width="428" height="3280" as="geometry" />
        </mxCell>
        <mxCell id="mmLnOPYVtGCXU9gxyw5n-2" value="" style="edgeStyle=orthogonalEdgeStyle;rounded=0;orthogonalLoop=1;jettySize=auto;html=1;" edge="1" parent="VTS3-1otBFQSeChfBnLC-1" source="VTS3-1otBFQSeChfBnLC-4" target="Pq15tbhS12MUQjzdkEHh-1">
          <mxGeometry relative="1" as="geometry" />
        </mxCell>
        <mxCell id="VTS3-1otBFQSeChfBnLC-4" value="" style="ellipse;whiteSpace=wrap;html=1;aspect=fixed;fillColor=#000000;" vertex="1" parent="VTS3-1otBFQSeChfBnLC-1">
          <mxGeometry x="180.5" y="80" width="41" height="41" as="geometry" />
        </mxCell>
        <mxCell id="mmLnOPYVtGCXU9gxyw5n-4" value="" style="edgeStyle=orthogonalEdgeStyle;rounded=0;orthogonalLoop=1;jettySize=auto;html=1;" edge="1" parent="VTS3-1otBFQSeChfBnLC-1" source="Pq15tbhS12MUQjzdkEHh-1" target="mmLnOPYVtGCXU9gxyw5n-3">
          <mxGeometry relative="1" as="geometry" />
        </mxCell>
        <mxCell id="Pq15tbhS12MUQjzdkEHh-1" value="&lt;font style=&quot;font-size: 18px;&quot;&gt;Start&lt;/font&gt;" style="rounded=1;whiteSpace=wrap;html=1;" vertex="1" parent="VTS3-1otBFQSeChfBnLC-1">
          <mxGeometry x="143.5" y="170" width="115" height="50" as="geometry" />
        </mxCell>
        <mxCell id="mmLnOPYVtGCXU9gxyw5n-3" value="&lt;font style=&quot;font-size: 14px;&quot;&gt;Login / Register&lt;/font&gt;" style="rounded=1;whiteSpace=wrap;html=1;" vertex="1" parent="VTS3-1otBFQSeChfBnLC-1">
          <mxGeometry x="137.75" y="305" width="126.5" height="60" as="geometry" />
        </mxCell>
        <mxCell id="gwoUoAHt-CxoufIsCxu_-13" style="edgeStyle=orthogonalEdgeStyle;rounded=0;orthogonalLoop=1;jettySize=auto;html=1;exitX=0.5;exitY=1;exitDx=0;exitDy=0;" edge="1" parent="VTS3-1otBFQSeChfBnLC-1" source="gwoUoAHt-CxoufIsCxu_-8" target="gwoUoAHt-CxoufIsCxu_-12">
          <mxGeometry relative="1" as="geometry" />
        </mxCell>
        <mxCell id="gwoUoAHt-CxoufIsCxu_-8" value="&lt;font style=&quot;font-size: 14px;&quot;&gt;Browse catalog&lt;/font&gt;" style="rounded=1;whiteSpace=wrap;html=1;" vertex="1" parent="VTS3-1otBFQSeChfBnLC-1">
          <mxGeometry x="137.75" y="420" width="126.5" height="60" as="geometry" />
        </mxCell>
        <mxCell id="gwoUoAHt-CxoufIsCxu_-12" value="&lt;font style=&quot;font-size: 14px;&quot;&gt;Search products&lt;/font&gt;" style="rounded=1;whiteSpace=wrap;html=1;" vertex="1" parent="VTS3-1otBFQSeChfBnLC-1">
          <mxGeometry x="137.75" y="520" width="126.5" height="60" as="geometry" />
        </mxCell>
        <mxCell id="gwoUoAHt-CxoufIsCxu_-24" value="" style="edgeStyle=orthogonalEdgeStyle;rounded=0;orthogonalLoop=1;jettySize=auto;html=1;" edge="1" parent="VTS3-1otBFQSeChfBnLC-1" source="gwoUoAHt-CxoufIsCxu_-22" target="gwoUoAHt-CxoufIsCxu_-23">
          <mxGeometry relative="1" as="geometry" />
        </mxCell>
        <mxCell id="gwoUoAHt-CxoufIsCxu_-22" value="&lt;font style=&quot;font-size: 14px;&quot;&gt;View product detail&lt;/font&gt;" style="rounded=1;whiteSpace=wrap;html=1;" vertex="1" parent="VTS3-1otBFQSeChfBnLC-1">
          <mxGeometry x="240" y="640" width="126.5" height="60" as="geometry" />
        </mxCell>
        <mxCell id="gwoUoAHt-CxoufIsCxu_-23" value="&lt;font style=&quot;font-size: 14px;&quot;&gt;Add to cart&lt;/font&gt;" style="rounded=1;whiteSpace=wrap;html=1;" vertex="1" parent="VTS3-1otBFQSeChfBnLC-1">
          <mxGeometry x="240" y="750" width="126.5" height="60" as="geometry" />
        </mxCell>
        <mxCell id="gwoUoAHt-CxoufIsCxu_-34" value="&lt;font style=&quot;font-size: 14px;&quot;&gt;View cart&lt;/font&gt;" style="rounded=1;whiteSpace=wrap;html=1;" vertex="1" parent="VTS3-1otBFQSeChfBnLC-1">
          <mxGeometry x="240" y="840" width="126.5" height="60" as="geometry" />
        </mxCell>
        <mxCell id="gwoUoAHt-CxoufIsCxu_-43" style="edgeStyle=orthogonalEdgeStyle;rounded=0;orthogonalLoop=1;jettySize=auto;html=1;exitX=0;exitY=0.5;exitDx=0;exitDy=0;exitPerimeter=0;entryX=0;entryY=0.5;entryDx=0;entryDy=0;" edge="1" parent="VTS3-1otBFQSeChfBnLC-1" source="gwoUoAHt-CxoufIsCxu_-36" target="gwoUoAHt-CxoufIsCxu_-8">
          <mxGeometry relative="1" as="geometry" />
        </mxCell>
        <mxCell id="gwoUoAHt-CxoufIsCxu_-44" value="&lt;font style=&quot;font-size: 14px;&quot;&gt;Yes&lt;/font&gt;" style="edgeLabel;html=1;align=center;verticalAlign=middle;resizable=0;points=[];" vertex="1" connectable="0" parent="gwoUoAHt-CxoufIsCxu_-43">
          <mxGeometry x="-0.8544" y="-2" relative="1" as="geometry">
            <mxPoint as="offset" />
          </mxGeometry>
        </mxCell>
        <mxCell id="gwoUoAHt-CxoufIsCxu_-46" style="edgeStyle=orthogonalEdgeStyle;rounded=0;orthogonalLoop=1;jettySize=auto;html=1;exitX=0.5;exitY=1;exitDx=0;exitDy=0;exitPerimeter=0;entryX=0.5;entryY=0;entryDx=0;entryDy=0;" edge="1" parent="VTS3-1otBFQSeChfBnLC-1" source="gwoUoAHt-CxoufIsCxu_-36" target="gwoUoAHt-CxoufIsCxu_-45">
          <mxGeometry relative="1" as="geometry" />
        </mxCell>
        <mxCell id="gwoUoAHt-CxoufIsCxu_-47" value="&lt;font style=&quot;font-size: 14px;&quot;&gt;No&lt;/font&gt;" style="edgeLabel;html=1;align=center;verticalAlign=middle;resizable=0;points=[];" vertex="1" connectable="0" parent="gwoUoAHt-CxoufIsCxu_-46">
          <mxGeometry x="-0.6298" y="-2" relative="1" as="geometry">
            <mxPoint x="2" y="16" as="offset" />
          </mxGeometry>
        </mxCell>
        <mxCell id="gwoUoAHt-CxoufIsCxu_-36" value="" style="strokeWidth=2;html=1;shape=mxgraph.flowchart.decision;whiteSpace=wrap;" vertex="1" parent="VTS3-1otBFQSeChfBnLC-1">
          <mxGeometry x="278.75" y="990" width="49" height="40" as="geometry" />
        </mxCell>
        <mxCell id="gwoUoAHt-CxoufIsCxu_-37" style="edgeStyle=orthogonalEdgeStyle;rounded=0;orthogonalLoop=1;jettySize=auto;html=1;exitX=0.5;exitY=1;exitDx=0;exitDy=0;entryX=0.5;entryY=0;entryDx=0;entryDy=0;entryPerimeter=0;" edge="1" parent="VTS3-1otBFQSeChfBnLC-1" source="gwoUoAHt-CxoufIsCxu_-34" target="gwoUoAHt-CxoufIsCxu_-36">
          <mxGeometry relative="1" as="geometry" />
        </mxCell>
        <mxCell id="gwoUoAHt-CxoufIsCxu_-41" value="&lt;font style=&quot;font-size: 14px;&quot;&gt;Continue shopping?&lt;/font&gt;" style="edgeLabel;html=1;align=center;verticalAlign=middle;resizable=0;points=[];" vertex="1" connectable="0" parent="gwoUoAHt-CxoufIsCxu_-37">
          <mxGeometry x="-0.4352" y="-2" relative="1" as="geometry">
            <mxPoint x="-61" y="15" as="offset" />
          </mxGeometry>
        </mxCell>
        <mxCell id="gwoUoAHt-CxoufIsCxu_-49" value="" style="edgeStyle=orthogonalEdgeStyle;rounded=0;orthogonalLoop=1;jettySize=auto;html=1;" edge="1" parent="VTS3-1otBFQSeChfBnLC-1" source="gwoUoAHt-CxoufIsCxu_-45" target="gwoUoAHt-CxoufIsCxu_-48">
          <mxGeometry relative="1" as="geometry" />
        </mxCell>
        <mxCell id="gwoUoAHt-CxoufIsCxu_-45" value="&lt;font style=&quot;font-size: 14px;&quot;&gt;Proceed to checkout&lt;/font&gt;" style="rounded=1;whiteSpace=wrap;html=1;" vertex="1" parent="VTS3-1otBFQSeChfBnLC-1">
          <mxGeometry x="234" y="1090" width="138.5" height="60" as="geometry" />
        </mxCell>
        <mxCell id="gwoUoAHt-CxoufIsCxu_-48" value="&lt;font style=&quot;font-size: 14px;&quot;&gt;Provide shipping address&lt;/font&gt;" style="rounded=1;whiteSpace=wrap;html=1;" vertex="1" parent="VTS3-1otBFQSeChfBnLC-1">
          <mxGeometry x="234" y="1200" width="138.5" height="60" as="geometry" />
        </mxCell>
        <mxCell id="gwoUoAHt-CxoufIsCxu_-83" value="&lt;span style=&quot;font-size: 14px;&quot;&gt;Choose payment method&lt;/span&gt;" style="rounded=1;whiteSpace=wrap;html=1;" vertex="1" parent="VTS3-1otBFQSeChfBnLC-1">
          <mxGeometry x="234" y="1350" width="138.5" height="60" as="geometry" />
        </mxCell>
        <mxCell id="gwoUoAHt-CxoufIsCxu_-110" value="Retry / Change method / Cancel" style="rounded=1;whiteSpace=wrap;html=1;" vertex="1" parent="VTS3-1otBFQSeChfBnLC-1">
          <mxGeometry x="234" y="1805" width="160" height="90" as="geometry" />
        </mxCell>
        <mxCell id="gwoUoAHt-CxoufIsCxu_-222" value="&lt;font style=&quot;font-size: 14px;&quot;&gt;Send Review&lt;/font&gt;" style="rounded=1;whiteSpace=wrap;html=1;" vertex="1" parent="VTS3-1otBFQSeChfBnLC-1">
          <mxGeometry x="170" y="2743" width="126.5" height="60" as="geometry" />
        </mxCell>
        <mxCell id="VTS3-1otBFQSeChfBnLC-16" value="System" style="swimlane;whiteSpace=wrap;html=1;gradientColor=none;" vertex="1" parent="lFggfK0TR-vwUHYJphF_-3">
          <mxGeometry x="1232" width="436" height="3280" as="geometry" />
        </mxCell>
        <mxCell id="gwoUoAHt-CxoufIsCxu_-2" value="" style="edgeStyle=orthogonalEdgeStyle;rounded=0;orthogonalLoop=1;jettySize=auto;html=1;" edge="1" parent="VTS3-1otBFQSeChfBnLC-16" source="xth8qUHbHZHacptDsgGU-1" target="gwoUoAHt-CxoufIsCxu_-1">
          <mxGeometry relative="1" as="geometry" />
        </mxCell>
        <mxCell id="gwoUoAHt-CxoufIsCxu_-38" value="&lt;font style=&quot;font-size: 14px;&quot;&gt;Session valid?&lt;/font&gt;" style="edgeLabel;html=1;align=center;verticalAlign=middle;resizable=0;points=[];" vertex="1" connectable="0" parent="gwoUoAHt-CxoufIsCxu_-2">
          <mxGeometry x="-0.3011" y="-1" relative="1" as="geometry">
            <mxPoint x="51" as="offset" />
          </mxGeometry>
        </mxCell>
        <mxCell id="xth8qUHbHZHacptDsgGU-1" value="&lt;font style=&quot;font-size: 14px;&quot;&gt;Validate session&lt;/font&gt;" style="rounded=1;whiteSpace=wrap;html=1;" vertex="1" parent="VTS3-1otBFQSeChfBnLC-16">
          <mxGeometry x="147" y="180" width="126.5" height="60" as="geometry" />
        </mxCell>
        <mxCell id="gwoUoAHt-CxoufIsCxu_-1" value="" style="strokeWidth=2;html=1;shape=mxgraph.flowchart.decision;whiteSpace=wrap;" vertex="1" parent="VTS3-1otBFQSeChfBnLC-16">
          <mxGeometry x="185.75" y="340" width="49" height="40" as="geometry" />
        </mxCell>
        <mxCell id="gwoUoAHt-CxoufIsCxu_-14" value="&lt;font style=&quot;font-size: 14px;&quot;&gt;Show search results&lt;/font&gt;" style="rounded=1;whiteSpace=wrap;html=1;" vertex="1" parent="VTS3-1otBFQSeChfBnLC-16">
          <mxGeometry x="147" y="470" width="126.5" height="60" as="geometry" />
        </mxCell>
        <mxCell id="gwoUoAHt-CxoufIsCxu_-16" value="" style="strokeWidth=2;html=1;shape=mxgraph.flowchart.decision;whiteSpace=wrap;" vertex="1" parent="VTS3-1otBFQSeChfBnLC-16">
          <mxGeometry x="185.75" y="600" width="49" height="40" as="geometry" />
        </mxCell>
        <mxCell id="gwoUoAHt-CxoufIsCxu_-17" style="edgeStyle=orthogonalEdgeStyle;rounded=0;orthogonalLoop=1;jettySize=auto;html=1;exitX=0.5;exitY=1;exitDx=0;exitDy=0;entryX=0.5;entryY=0;entryDx=0;entryDy=0;entryPerimeter=0;" edge="1" parent="VTS3-1otBFQSeChfBnLC-16" source="gwoUoAHt-CxoufIsCxu_-14" target="gwoUoAHt-CxoufIsCxu_-16">
          <mxGeometry relative="1" as="geometry" />
        </mxCell>
        <mxCell id="gwoUoAHt-CxoufIsCxu_-40" value="&lt;font style=&quot;font-size: 14px;&quot;&gt;Found results?&lt;/font&gt;" style="edgeLabel;html=1;align=center;verticalAlign=middle;resizable=0;points=[];" vertex="1" connectable="0" parent="gwoUoAHt-CxoufIsCxu_-17">
          <mxGeometry x="-0.2874" y="2" relative="1" as="geometry">
            <mxPoint x="48" y="5" as="offset" />
          </mxGeometry>
        </mxCell>
        <mxCell id="gwoUoAHt-CxoufIsCxu_-25" value="&lt;font style=&quot;font-size: 14px;&quot;&gt;Update cart totals&lt;/font&gt;" style="rounded=1;whiteSpace=wrap;html=1;" vertex="1" parent="VTS3-1otBFQSeChfBnLC-16">
          <mxGeometry x="147" y="750" width="126.5" height="60" as="geometry" />
        </mxCell>
        <mxCell id="gwoUoAHt-CxoufIsCxu_-50" value="&lt;font style=&quot;font-size: 14px;&quot;&gt;Validate address&lt;/font&gt;" style="rounded=1;whiteSpace=wrap;html=1;" vertex="1" parent="VTS3-1otBFQSeChfBnLC-16">
          <mxGeometry x="76" y="1200" width="126.5" height="60" as="geometry" />
        </mxCell>
        <mxCell id="gwoUoAHt-CxoufIsCxu_-52" value="" style="strokeWidth=2;html=1;shape=mxgraph.flowchart.decision;whiteSpace=wrap;" vertex="1" parent="VTS3-1otBFQSeChfBnLC-16">
          <mxGeometry x="114.75" y="1290" width="49" height="40" as="geometry" />
        </mxCell>
        <mxCell id="gwoUoAHt-CxoufIsCxu_-53" style="edgeStyle=orthogonalEdgeStyle;rounded=0;orthogonalLoop=1;jettySize=auto;html=1;exitX=0.5;exitY=1;exitDx=0;exitDy=0;entryX=0.5;entryY=0;entryDx=0;entryDy=0;entryPerimeter=0;" edge="1" parent="VTS3-1otBFQSeChfBnLC-16" source="gwoUoAHt-CxoufIsCxu_-50" target="gwoUoAHt-CxoufIsCxu_-52">
          <mxGeometry relative="1" as="geometry" />
        </mxCell>
        <mxCell id="gwoUoAHt-CxoufIsCxu_-91" value="" style="edgeStyle=orthogonalEdgeStyle;rounded=0;orthogonalLoop=1;jettySize=auto;html=1;" edge="1" parent="VTS3-1otBFQSeChfBnLC-16" source="gwoUoAHt-CxoufIsCxu_-87" target="gwoUoAHt-CxoufIsCxu_-90">
          <mxGeometry relative="1" as="geometry" />
        </mxCell>
        <mxCell id="gwoUoAHt-CxoufIsCxu_-87" value="&lt;font style=&quot;font-size: 14px;&quot;&gt;Create Order&lt;/font&gt;&lt;div&gt;&lt;font size=&quot;3&quot; style=&quot;&quot;&gt;(status = Created)&lt;/font&gt;&lt;/div&gt;" style="rounded=1;whiteSpace=wrap;html=1;" vertex="1" parent="VTS3-1otBFQSeChfBnLC-16">
          <mxGeometry x="68.5" y="1400" width="161.5" height="80" as="geometry" />
        </mxCell>
        <mxCell id="gwoUoAHt-CxoufIsCxu_-94" value="" style="edgeStyle=orthogonalEdgeStyle;rounded=0;orthogonalLoop=1;jettySize=auto;html=1;" edge="1" parent="VTS3-1otBFQSeChfBnLC-16" source="gwoUoAHt-CxoufIsCxu_-90" target="gwoUoAHt-CxoufIsCxu_-92">
          <mxGeometry relative="1" as="geometry" />
        </mxCell>
        <mxCell id="gwoUoAHt-CxoufIsCxu_-90" value="&lt;font style=&quot;font-size: 14px;&quot;&gt;Set Order&lt;/font&gt;" style="rounded=1;whiteSpace=wrap;html=1;" vertex="1" parent="VTS3-1otBFQSeChfBnLC-16">
          <mxGeometry x="72.25" y="1520" width="126.5" height="60" as="geometry" />
        </mxCell>
        <mxCell id="gwoUoAHt-CxoufIsCxu_-96" value="" style="edgeStyle=orthogonalEdgeStyle;rounded=0;orthogonalLoop=1;jettySize=auto;html=1;" edge="1" parent="VTS3-1otBFQSeChfBnLC-16" source="gwoUoAHt-CxoufIsCxu_-92" target="gwoUoAHt-CxoufIsCxu_-95">
          <mxGeometry relative="1" as="geometry" />
        </mxCell>
        <mxCell id="gwoUoAHt-CxoufIsCxu_-92" value="&lt;font style=&quot;font-size: 14px;&quot;&gt;PaymentPending&lt;/font&gt;" style="rounded=1;whiteSpace=wrap;html=1;" vertex="1" parent="VTS3-1otBFQSeChfBnLC-16">
          <mxGeometry x="72.25" y="1610" width="126.5" height="60" as="geometry" />
        </mxCell>
        <mxCell id="gwoUoAHt-CxoufIsCxu_-95" value="&lt;font style=&quot;font-size: 14px;&quot;&gt;Create Payment&lt;/font&gt;" style="rounded=1;whiteSpace=wrap;html=1;" vertex="1" parent="VTS3-1otBFQSeChfBnLC-16">
          <mxGeometry x="72.25" y="1710" width="126.5" height="60" as="geometry" />
        </mxCell>
        <mxCell id="gwoUoAHt-CxoufIsCxu_-106" value="" style="edgeStyle=orthogonalEdgeStyle;rounded=0;orthogonalLoop=1;jettySize=auto;html=1;" edge="1" parent="VTS3-1otBFQSeChfBnLC-16" source="gwoUoAHt-CxoufIsCxu_-102" target="gwoUoAHt-CxoufIsCxu_-105">
          <mxGeometry relative="1" as="geometry" />
        </mxCell>
        <mxCell id="gwoUoAHt-CxoufIsCxu_-102" value="&lt;font style=&quot;font-size: 14px;&quot;&gt;Order&lt;/font&gt;" style="rounded=1;whiteSpace=wrap;html=1;" vertex="1" parent="VTS3-1otBFQSeChfBnLC-16">
          <mxGeometry x="72.25" y="1820" width="126.5" height="60" as="geometry" />
        </mxCell>
        <mxCell id="gwoUoAHt-CxoufIsCxu_-105" value="&lt;font style=&quot;font-size: 14px;&quot;&gt;Paid&lt;/font&gt;" style="rounded=1;whiteSpace=wrap;html=1;" vertex="1" parent="VTS3-1otBFQSeChfBnLC-16">
          <mxGeometry x="72.25" y="1910" width="126.5" height="60" as="geometry" />
        </mxCell>
        <mxCell id="gwoUoAHt-CxoufIsCxu_-118" value="" style="edgeStyle=orthogonalEdgeStyle;rounded=0;orthogonalLoop=1;jettySize=auto;html=1;" edge="1" parent="VTS3-1otBFQSeChfBnLC-16" source="gwoUoAHt-CxoufIsCxu_-115" target="gwoUoAHt-CxoufIsCxu_-117">
          <mxGeometry relative="1" as="geometry" />
        </mxCell>
        <mxCell id="gwoUoAHt-CxoufIsCxu_-115" value="&lt;font style=&quot;font-size: 14px;&quot;&gt;Order&lt;/font&gt;" style="rounded=1;whiteSpace=wrap;html=1;" vertex="1" parent="VTS3-1otBFQSeChfBnLC-16">
          <mxGeometry x="72.25" y="2020" width="126.5" height="60" as="geometry" />
        </mxCell>
        <mxCell id="gwoUoAHt-CxoufIsCxu_-117" value="&lt;font style=&quot;font-size: 14px;&quot;&gt;Exported&lt;/font&gt;" style="rounded=1;whiteSpace=wrap;html=1;" vertex="1" parent="VTS3-1otBFQSeChfBnLC-16">
          <mxGeometry x="72.25" y="2128" width="126.5" height="60" as="geometry" />
        </mxCell>
        <mxCell id="gwoUoAHt-CxoufIsCxu_-214" value="" style="edgeStyle=orthogonalEdgeStyle;rounded=0;orthogonalLoop=1;jettySize=auto;html=1;" edge="1" parent="VTS3-1otBFQSeChfBnLC-16" source="gwoUoAHt-CxoufIsCxu_-211" target="gwoUoAHt-CxoufIsCxu_-213">
          <mxGeometry relative="1" as="geometry" />
        </mxCell>
        <mxCell id="gwoUoAHt-CxoufIsCxu_-211" value="&lt;span style=&quot;font-size: 14px;&quot;&gt;Order&lt;/span&gt;" style="rounded=1;whiteSpace=wrap;html=1;" vertex="1" parent="VTS3-1otBFQSeChfBnLC-16">
          <mxGeometry x="68.5" y="2240" width="126.5" height="60" as="geometry" />
        </mxCell>
        <mxCell id="gwoUoAHt-CxoufIsCxu_-216" style="edgeStyle=orthogonalEdgeStyle;rounded=0;orthogonalLoop=1;jettySize=auto;html=1;exitX=0.5;exitY=1;exitDx=0;exitDy=0;entryX=0.5;entryY=0;entryDx=0;entryDy=0;" edge="1" parent="VTS3-1otBFQSeChfBnLC-16" source="gwoUoAHt-CxoufIsCxu_-213" target="gwoUoAHt-CxoufIsCxu_-215">
          <mxGeometry relative="1" as="geometry" />
        </mxCell>
        <mxCell id="gwoUoAHt-CxoufIsCxu_-213" value="&lt;font style=&quot;font-size: 14px;&quot;&gt;Delivered&lt;/font&gt;" style="rounded=1;whiteSpace=wrap;html=1;" vertex="1" parent="VTS3-1otBFQSeChfBnLC-16">
          <mxGeometry x="68.5" y="2340" width="126.5" height="60" as="geometry" />
        </mxCell>
        <mxCell id="gwoUoAHt-CxoufIsCxu_-218" style="edgeStyle=orthogonalEdgeStyle;rounded=0;orthogonalLoop=1;jettySize=auto;html=1;exitX=0.5;exitY=1;exitDx=0;exitDy=0;entryX=0.5;entryY=0;entryDx=0;entryDy=0;" edge="1" parent="VTS3-1otBFQSeChfBnLC-16" source="gwoUoAHt-CxoufIsCxu_-215" target="gwoUoAHt-CxoufIsCxu_-217">
          <mxGeometry relative="1" as="geometry" />
        </mxCell>
        <mxCell id="gwoUoAHt-CxoufIsCxu_-215" value="&lt;font style=&quot;font-size: 18px;&quot;&gt;Auto-complete after return window&lt;/font&gt;" style="rounded=1;whiteSpace=wrap;html=1;" vertex="1" parent="VTS3-1otBFQSeChfBnLC-16">
          <mxGeometry x="56" y="2450" width="210" height="120" as="geometry" />
        </mxCell>
        <mxCell id="gwoUoAHt-CxoufIsCxu_-220" style="edgeStyle=orthogonalEdgeStyle;rounded=0;orthogonalLoop=1;jettySize=auto;html=1;exitX=0.5;exitY=1;exitDx=0;exitDy=0;" edge="1" parent="VTS3-1otBFQSeChfBnLC-16" source="gwoUoAHt-CxoufIsCxu_-217" target="gwoUoAHt-CxoufIsCxu_-219">
          <mxGeometry relative="1" as="geometry" />
        </mxCell>
        <mxCell id="gwoUoAHt-CxoufIsCxu_-217" value="&lt;span style=&quot;font-size: 14px;&quot;&gt;Order&lt;/span&gt;" style="rounded=1;whiteSpace=wrap;html=1;" vertex="1" parent="VTS3-1otBFQSeChfBnLC-16">
          <mxGeometry x="97.75" y="2640" width="126.5" height="60" as="geometry" />
        </mxCell>
        <mxCell id="gwoUoAHt-CxoufIsCxu_-219" value="&lt;font style=&quot;font-size: 14px;&quot;&gt;Completed&lt;/font&gt;" style="rounded=1;whiteSpace=wrap;html=1;" vertex="1" parent="VTS3-1otBFQSeChfBnLC-16">
          <mxGeometry x="97.75" y="2743" width="126.5" height="60" as="geometry" />
        </mxCell>
        <mxCell id="xth8qUHbHZHacptDsgGU-2" style="edgeStyle=orthogonalEdgeStyle;rounded=0;orthogonalLoop=1;jettySize=auto;html=1;entryX=0;entryY=0.5;entryDx=0;entryDy=0;" edge="1" parent="lFggfK0TR-vwUHYJphF_-3" source="mmLnOPYVtGCXU9gxyw5n-3" target="xth8qUHbHZHacptDsgGU-1">
          <mxGeometry relative="1" as="geometry" />
        </mxCell>
        <mxCell id="lFggfK0TR-vwUHYJphF_-5" value="" style="group" vertex="1" connectable="0" parent="lFggfK0TR-vwUHYJphF_-3">
          <mxGeometry x="830" width="804" height="3280" as="geometry" />
        </mxCell>
        <mxCell id="VTS3-1otBFQSeChfBnLC-46" value="Staff/Admin" style="swimlane;whiteSpace=wrap;html=1;gradientColor=none;" vertex="1" parent="lFggfK0TR-vwUHYJphF_-5">
          <mxGeometry width="402" height="3280" as="geometry" />
        </mxCell>
        <mxCell id="gwoUoAHt-CxoufIsCxu_-114" value="" style="edgeStyle=orthogonalEdgeStyle;rounded=0;orthogonalLoop=1;jettySize=auto;html=1;" edge="1" parent="VTS3-1otBFQSeChfBnLC-46" source="gwoUoAHt-CxoufIsCxu_-111" target="gwoUoAHt-CxoufIsCxu_-113">
          <mxGeometry relative="1" as="geometry" />
        </mxCell>
        <mxCell id="gwoUoAHt-CxoufIsCxu_-111" value="&lt;font style=&quot;font-size: 14px;&quot;&gt;Reserve stock (Allocate)&lt;/font&gt;" style="rounded=1;whiteSpace=wrap;html=1;" vertex="1" parent="VTS3-1otBFQSeChfBnLC-46">
          <mxGeometry x="137.75" y="1910" width="126.5" height="60" as="geometry" />
        </mxCell>
        <mxCell id="gwoUoAHt-CxoufIsCxu_-113" value="&lt;font style=&quot;font-size: 14px;&quot;&gt;Export / Handover shipment&lt;/font&gt;" style="rounded=1;whiteSpace=wrap;html=1;" vertex="1" parent="VTS3-1otBFQSeChfBnLC-46">
          <mxGeometry x="137.75" y="2020" width="126.5" height="60" as="geometry" />
        </mxCell>
        <mxCell id="gwoUoAHt-CxoufIsCxu_-119" value="&lt;font style=&quot;font-size: 14px;&quot;&gt;Confirm delivery&lt;/font&gt;" style="rounded=1;whiteSpace=wrap;html=1;" vertex="1" parent="VTS3-1otBFQSeChfBnLC-46">
          <mxGeometry x="137.75" y="2170" width="126.5" height="60" as="geometry" />
        </mxCell>
        <mxCell id="gwoUoAHt-CxoufIsCxu_-227" style="edgeStyle=orthogonalEdgeStyle;rounded=0;orthogonalLoop=1;jettySize=auto;html=1;exitX=0.5;exitY=1;exitDx=0;exitDy=0;entryX=0.5;entryY=0;entryDx=0;entryDy=0;" edge="1" parent="lFggfK0TR-vwUHYJphF_-5" source="gwoUoAHt-CxoufIsCxu_-223" target="VTS3-1otBFQSeChfBnLC-58">
          <mxGeometry relative="1" as="geometry" />
        </mxCell>
        <mxCell id="gwoUoAHt-CxoufIsCxu_-223" value="&lt;font style=&quot;font-size: 14px;&quot;&gt;Response Review&lt;/font&gt;" style="rounded=1;whiteSpace=wrap;html=1;" vertex="1" parent="lFggfK0TR-vwUHYJphF_-5">
          <mxGeometry x="490" y="2870" width="126.5" height="60" as="geometry" />
        </mxCell>
        <mxCell id="VTS3-1otBFQSeChfBnLC-77" value="" style="group" vertex="1" connectable="0" parent="lFggfK0TR-vwUHYJphF_-5">
          <mxGeometry x="528.25" y="3020" width="50" height="50" as="geometry" />
        </mxCell>
        <mxCell id="VTS3-1otBFQSeChfBnLC-58" value="" style="ellipse;whiteSpace=wrap;html=1;aspect=fixed;" vertex="1" parent="VTS3-1otBFQSeChfBnLC-77">
          <mxGeometry width="50" height="50" as="geometry" />
        </mxCell>
        <mxCell id="VTS3-1otBFQSeChfBnLC-59" value="" style="ellipse;whiteSpace=wrap;html=1;aspect=fixed;fillColor=#33001A;movable=1;resizable=1;rotatable=1;deletable=1;editable=1;locked=0;connectable=1;" vertex="1" parent="VTS3-1otBFQSeChfBnLC-77">
          <mxGeometry x="9.5" y="9.5" width="30.5" height="30.5" as="geometry" />
        </mxCell>
        <mxCell id="VTS3-1otBFQSeChfBnLC-76" style="edgeStyle=orthogonalEdgeStyle;rounded=0;orthogonalLoop=1;jettySize=auto;html=1;exitX=0;exitY=0;exitDx=0;exitDy=0;entryX=1;entryY=0;entryDx=0;entryDy=0;" edge="1" parent="VTS3-1otBFQSeChfBnLC-77" source="VTS3-1otBFQSeChfBnLC-59" target="VTS3-1otBFQSeChfBnLC-59">
          <mxGeometry relative="1" as="geometry" />
        </mxCell>
        <mxCell id="VTS3-1otBFQSeChfBnLC-31" value="Payment Provider" style="swimlane;whiteSpace=wrap;html=1;gradientColor=none;" vertex="1" parent="lFggfK0TR-vwUHYJphF_-3">
          <mxGeometry x="428" width="402" height="3280" as="geometry" />
        </mxCell>
        <mxCell id="gwoUoAHt-CxoufIsCxu_-100" value="" style="edgeStyle=orthogonalEdgeStyle;rounded=0;orthogonalLoop=1;jettySize=auto;html=1;" edge="1" parent="VTS3-1otBFQSeChfBnLC-31" source="gwoUoAHt-CxoufIsCxu_-97" target="gwoUoAHt-CxoufIsCxu_-99">
          <mxGeometry relative="1" as="geometry" />
        </mxCell>
        <mxCell id="gwoUoAHt-CxoufIsCxu_-101" value="&lt;font style=&quot;font-size: 14px;&quot;&gt;Payment result?&lt;/font&gt;" style="edgeLabel;html=1;align=center;verticalAlign=middle;resizable=0;points=[];" vertex="1" connectable="0" parent="gwoUoAHt-CxoufIsCxu_-100">
          <mxGeometry x="-0.3194" y="1" relative="1" as="geometry">
            <mxPoint x="60" y="9" as="offset" />
          </mxGeometry>
        </mxCell>
        <mxCell id="gwoUoAHt-CxoufIsCxu_-97" value="&lt;font style=&quot;font-size: 14px;&quot;&gt;Process payment&lt;/font&gt;" style="rounded=1;whiteSpace=wrap;html=1;" vertex="1" parent="VTS3-1otBFQSeChfBnLC-31">
          <mxGeometry x="137.75" y="1710" width="126.5" height="60" as="geometry" />
        </mxCell>
        <mxCell id="gwoUoAHt-CxoufIsCxu_-99" value="" style="strokeWidth=2;html=1;shape=mxgraph.flowchart.decision;whiteSpace=wrap;" vertex="1" parent="VTS3-1otBFQSeChfBnLC-31">
          <mxGeometry x="176.5" y="1830" width="49" height="40" as="geometry" />
        </mxCell>
        <mxCell id="gwoUoAHt-CxoufIsCxu_-4" style="edgeStyle=orthogonalEdgeStyle;rounded=0;orthogonalLoop=1;jettySize=auto;html=1;exitX=0;exitY=0.5;exitDx=0;exitDy=0;exitPerimeter=0;entryX=0.5;entryY=1;entryDx=0;entryDy=0;" edge="1" parent="lFggfK0TR-vwUHYJphF_-3" source="gwoUoAHt-CxoufIsCxu_-1" target="mmLnOPYVtGCXU9gxyw5n-3">
          <mxGeometry relative="1" as="geometry">
            <mxPoint x="298.7301897321429" y="485" as="targetPoint" />
          </mxGeometry>
        </mxCell>
        <mxCell id="gwoUoAHt-CxoufIsCxu_-5" value="&lt;font style=&quot;font-size: 14px;&quot;&gt;No&lt;/font&gt;" style="edgeLabel;html=1;align=center;verticalAlign=middle;resizable=0;points=[];" vertex="1" connectable="0" parent="gwoUoAHt-CxoufIsCxu_-4">
          <mxGeometry x="-0.8952" y="-2" relative="1" as="geometry">
            <mxPoint y="2" as="offset" />
          </mxGeometry>
        </mxCell>
        <mxCell id="gwoUoAHt-CxoufIsCxu_-15" style="edgeStyle=orthogonalEdgeStyle;rounded=0;orthogonalLoop=1;jettySize=auto;html=1;exitX=1;exitY=0.5;exitDx=0;exitDy=0;entryX=0;entryY=0.5;entryDx=0;entryDy=0;" edge="1" parent="lFggfK0TR-vwUHYJphF_-3" source="gwoUoAHt-CxoufIsCxu_-12" target="gwoUoAHt-CxoufIsCxu_-14">
          <mxGeometry relative="1" as="geometry" />
        </mxCell>
        <mxCell id="gwoUoAHt-CxoufIsCxu_-18" style="edgeStyle=orthogonalEdgeStyle;rounded=0;orthogonalLoop=1;jettySize=auto;html=1;exitX=0;exitY=0.5;exitDx=0;exitDy=0;exitPerimeter=0;entryX=0.5;entryY=1;entryDx=0;entryDy=0;" edge="1" parent="lFggfK0TR-vwUHYJphF_-3" source="gwoUoAHt-CxoufIsCxu_-16" target="gwoUoAHt-CxoufIsCxu_-12">
          <mxGeometry relative="1" as="geometry" />
        </mxCell>
        <mxCell id="gwoUoAHt-CxoufIsCxu_-19" value="&lt;font style=&quot;font-size: 14px;&quot;&gt;No&lt;/font&gt;" style="edgeLabel;html=1;align=center;verticalAlign=middle;resizable=0;points=[];" vertex="1" connectable="0" parent="gwoUoAHt-CxoufIsCxu_-18">
          <mxGeometry x="-0.9288" y="5" relative="1" as="geometry">
            <mxPoint y="-5" as="offset" />
          </mxGeometry>
        </mxCell>
        <mxCell id="gwoUoAHt-CxoufIsCxu_-26" style="edgeStyle=orthogonalEdgeStyle;rounded=0;orthogonalLoop=1;jettySize=auto;html=1;exitX=1;exitY=0.5;exitDx=0;exitDy=0;" edge="1" parent="lFggfK0TR-vwUHYJphF_-3" source="gwoUoAHt-CxoufIsCxu_-23" target="gwoUoAHt-CxoufIsCxu_-25">
          <mxGeometry relative="1" as="geometry" />
        </mxCell>
        <mxCell id="gwoUoAHt-CxoufIsCxu_-30" style="edgeStyle=orthogonalEdgeStyle;rounded=0;orthogonalLoop=1;jettySize=auto;html=1;exitX=0.5;exitY=1;exitDx=0;exitDy=0;exitPerimeter=0;entryX=1;entryY=0.5;entryDx=0;entryDy=0;" edge="1" parent="lFggfK0TR-vwUHYJphF_-3" source="gwoUoAHt-CxoufIsCxu_-1" target="gwoUoAHt-CxoufIsCxu_-8">
          <mxGeometry relative="1" as="geometry" />
        </mxCell>
        <mxCell id="gwoUoAHt-CxoufIsCxu_-31" value="&lt;font style=&quot;font-size: 14px;&quot;&gt;Yes&lt;/font&gt;" style="edgeLabel;html=1;align=center;verticalAlign=middle;resizable=0;points=[];" vertex="1" connectable="0" parent="gwoUoAHt-CxoufIsCxu_-30">
          <mxGeometry x="-0.9503" y="3" relative="1" as="geometry">
            <mxPoint as="offset" />
          </mxGeometry>
        </mxCell>
        <mxCell id="gwoUoAHt-CxoufIsCxu_-32" style="edgeStyle=orthogonalEdgeStyle;rounded=0;orthogonalLoop=1;jettySize=auto;html=1;exitX=0.5;exitY=1;exitDx=0;exitDy=0;exitPerimeter=0;entryX=1;entryY=0.5;entryDx=0;entryDy=0;" edge="1" parent="lFggfK0TR-vwUHYJphF_-3" source="gwoUoAHt-CxoufIsCxu_-16" target="gwoUoAHt-CxoufIsCxu_-22">
          <mxGeometry relative="1" as="geometry" />
        </mxCell>
        <mxCell id="gwoUoAHt-CxoufIsCxu_-33" value="&lt;font style=&quot;font-size: 14px;&quot;&gt;Yes&lt;/font&gt;" style="edgeLabel;html=1;align=center;verticalAlign=middle;resizable=0;points=[];" vertex="1" connectable="0" parent="gwoUoAHt-CxoufIsCxu_-32">
          <mxGeometry x="-0.8503" y="4" relative="1" as="geometry">
            <mxPoint as="offset" />
          </mxGeometry>
        </mxCell>
        <mxCell id="gwoUoAHt-CxoufIsCxu_-35" style="edgeStyle=orthogonalEdgeStyle;rounded=0;orthogonalLoop=1;jettySize=auto;html=1;exitX=0.5;exitY=1;exitDx=0;exitDy=0;entryX=1;entryY=0.5;entryDx=0;entryDy=0;" edge="1" parent="lFggfK0TR-vwUHYJphF_-3" source="gwoUoAHt-CxoufIsCxu_-25" target="gwoUoAHt-CxoufIsCxu_-34">
          <mxGeometry relative="1" as="geometry" />
        </mxCell>
        <mxCell id="gwoUoAHt-CxoufIsCxu_-51" style="edgeStyle=orthogonalEdgeStyle;rounded=0;orthogonalLoop=1;jettySize=auto;html=1;exitX=1;exitY=0.5;exitDx=0;exitDy=0;" edge="1" parent="lFggfK0TR-vwUHYJphF_-3" source="gwoUoAHt-CxoufIsCxu_-48" target="gwoUoAHt-CxoufIsCxu_-50">
          <mxGeometry relative="1" as="geometry" />
        </mxCell>
        <mxCell id="gwoUoAHt-CxoufIsCxu_-54" style="edgeStyle=orthogonalEdgeStyle;rounded=0;orthogonalLoop=1;jettySize=auto;html=1;exitX=0;exitY=0.5;exitDx=0;exitDy=0;exitPerimeter=0;" edge="1" parent="lFggfK0TR-vwUHYJphF_-3" source="gwoUoAHt-CxoufIsCxu_-52" target="gwoUoAHt-CxoufIsCxu_-48">
          <mxGeometry relative="1" as="geometry" />
        </mxCell>
        <mxCell id="gwoUoAHt-CxoufIsCxu_-55" value="&lt;font style=&quot;font-size: 14px;&quot;&gt;No&lt;/font&gt;" style="edgeLabel;html=1;align=center;verticalAlign=middle;resizable=0;points=[];" vertex="1" connectable="0" parent="gwoUoAHt-CxoufIsCxu_-54">
          <mxGeometry x="-0.9089" y="4" relative="1" as="geometry">
            <mxPoint as="offset" />
          </mxGeometry>
        </mxCell>
        <mxCell id="gwoUoAHt-CxoufIsCxu_-85" style="edgeStyle=orthogonalEdgeStyle;rounded=0;orthogonalLoop=1;jettySize=auto;html=1;exitX=0.5;exitY=1;exitDx=0;exitDy=0;exitPerimeter=0;entryX=1;entryY=0.25;entryDx=0;entryDy=0;" edge="1" parent="lFggfK0TR-vwUHYJphF_-3" source="gwoUoAHt-CxoufIsCxu_-52" target="gwoUoAHt-CxoufIsCxu_-83">
          <mxGeometry relative="1" as="geometry" />
        </mxCell>
        <mxCell id="gwoUoAHt-CxoufIsCxu_-86" value="&lt;font style=&quot;font-size: 14px;&quot;&gt;Yes&lt;/font&gt;" style="edgeLabel;html=1;align=center;verticalAlign=middle;resizable=0;points=[];" vertex="1" connectable="0" parent="gwoUoAHt-CxoufIsCxu_-85">
          <mxGeometry x="-0.8261" y="-3" relative="1" as="geometry">
            <mxPoint as="offset" />
          </mxGeometry>
        </mxCell>
        <mxCell id="gwoUoAHt-CxoufIsCxu_-89" style="edgeStyle=orthogonalEdgeStyle;rounded=0;orthogonalLoop=1;jettySize=auto;html=1;exitX=1;exitY=0.75;exitDx=0;exitDy=0;entryX=0;entryY=0.5;entryDx=0;entryDy=0;" edge="1" parent="lFggfK0TR-vwUHYJphF_-3" source="gwoUoAHt-CxoufIsCxu_-83" target="gwoUoAHt-CxoufIsCxu_-87">
          <mxGeometry relative="1" as="geometry" />
        </mxCell>
        <mxCell id="gwoUoAHt-CxoufIsCxu_-98" style="edgeStyle=orthogonalEdgeStyle;rounded=0;orthogonalLoop=1;jettySize=auto;html=1;exitX=0;exitY=0.5;exitDx=0;exitDy=0;entryX=1;entryY=0.5;entryDx=0;entryDy=0;" edge="1" parent="lFggfK0TR-vwUHYJphF_-3" source="gwoUoAHt-CxoufIsCxu_-95" target="gwoUoAHt-CxoufIsCxu_-97">
          <mxGeometry relative="1" as="geometry" />
        </mxCell>
        <mxCell id="gwoUoAHt-CxoufIsCxu_-103" style="edgeStyle=orthogonalEdgeStyle;rounded=0;orthogonalLoop=1;jettySize=auto;html=1;entryX=0;entryY=0.5;entryDx=0;entryDy=0;" edge="1" parent="lFggfK0TR-vwUHYJphF_-3" source="gwoUoAHt-CxoufIsCxu_-99" target="gwoUoAHt-CxoufIsCxu_-102">
          <mxGeometry relative="1" as="geometry" />
        </mxCell>
        <mxCell id="gwoUoAHt-CxoufIsCxu_-104" value="&lt;font style=&quot;font-size: 14px;&quot;&gt;Success&lt;/font&gt;" style="edgeLabel;html=1;align=center;verticalAlign=middle;resizable=0;points=[];" vertex="1" connectable="0" parent="gwoUoAHt-CxoufIsCxu_-103">
          <mxGeometry x="-0.8061" relative="1" as="geometry">
            <mxPoint as="offset" />
          </mxGeometry>
        </mxCell>
        <mxCell id="gwoUoAHt-CxoufIsCxu_-108" style="edgeStyle=orthogonalEdgeStyle;rounded=0;orthogonalLoop=1;jettySize=auto;html=1;exitX=0;exitY=0.5;exitDx=0;exitDy=0;exitPerimeter=0;entryX=1;entryY=0.5;entryDx=0;entryDy=0;" edge="1" parent="lFggfK0TR-vwUHYJphF_-3" source="gwoUoAHt-CxoufIsCxu_-99" target="gwoUoAHt-CxoufIsCxu_-110">
          <mxGeometry relative="1" as="geometry">
            <mxPoint x="296.50000000000045" y="1850" as="targetPoint" />
          </mxGeometry>
        </mxCell>
        <mxCell id="gwoUoAHt-CxoufIsCxu_-109" value="&lt;font style=&quot;font-size: 14px;&quot;&gt;Failed&lt;/font&gt;" style="edgeLabel;html=1;align=center;verticalAlign=middle;resizable=0;points=[];" vertex="1" connectable="0" parent="gwoUoAHt-CxoufIsCxu_-108">
          <mxGeometry x="-0.6318" y="-1" relative="1" as="geometry">
            <mxPoint as="offset" />
          </mxGeometry>
        </mxCell>
        <mxCell id="gwoUoAHt-CxoufIsCxu_-112" style="edgeStyle=orthogonalEdgeStyle;rounded=0;orthogonalLoop=1;jettySize=auto;html=1;exitX=0;exitY=0.5;exitDx=0;exitDy=0;entryX=1;entryY=0.5;entryDx=0;entryDy=0;" edge="1" parent="lFggfK0TR-vwUHYJphF_-3" source="gwoUoAHt-CxoufIsCxu_-105" target="gwoUoAHt-CxoufIsCxu_-111">
          <mxGeometry relative="1" as="geometry" />
        </mxCell>
        <mxCell id="gwoUoAHt-CxoufIsCxu_-116" style="edgeStyle=orthogonalEdgeStyle;rounded=0;orthogonalLoop=1;jettySize=auto;html=1;exitX=1;exitY=0.5;exitDx=0;exitDy=0;entryX=0;entryY=0.5;entryDx=0;entryDy=0;" edge="1" parent="lFggfK0TR-vwUHYJphF_-3" source="gwoUoAHt-CxoufIsCxu_-113" target="gwoUoAHt-CxoufIsCxu_-115">
          <mxGeometry relative="1" as="geometry" />
        </mxCell>
        <mxCell id="gwoUoAHt-CxoufIsCxu_-120" style="edgeStyle=orthogonalEdgeStyle;rounded=0;orthogonalLoop=1;jettySize=auto;html=1;exitX=0;exitY=0.5;exitDx=0;exitDy=0;entryX=1;entryY=0.25;entryDx=0;entryDy=0;" edge="1" parent="lFggfK0TR-vwUHYJphF_-3" source="gwoUoAHt-CxoufIsCxu_-117" target="gwoUoAHt-CxoufIsCxu_-119">
          <mxGeometry relative="1" as="geometry" />
        </mxCell>
        <mxCell id="gwoUoAHt-CxoufIsCxu_-212" style="edgeStyle=orthogonalEdgeStyle;rounded=0;orthogonalLoop=1;jettySize=auto;html=1;exitX=1;exitY=0.75;exitDx=0;exitDy=0;entryX=0;entryY=0.5;entryDx=0;entryDy=0;" edge="1" parent="lFggfK0TR-vwUHYJphF_-3" source="gwoUoAHt-CxoufIsCxu_-119" target="gwoUoAHt-CxoufIsCxu_-211">
          <mxGeometry relative="1" as="geometry" />
        </mxCell>
        <mxCell id="gwoUoAHt-CxoufIsCxu_-224" style="edgeStyle=orthogonalEdgeStyle;rounded=0;orthogonalLoop=1;jettySize=auto;html=1;exitX=0;exitY=0.5;exitDx=0;exitDy=0;entryX=1;entryY=0.5;entryDx=0;entryDy=0;" edge="1" parent="lFggfK0TR-vwUHYJphF_-3" source="gwoUoAHt-CxoufIsCxu_-219" target="gwoUoAHt-CxoufIsCxu_-222">
          <mxGeometry relative="1" as="geometry" />
        </mxCell>
        <mxCell id="gwoUoAHt-CxoufIsCxu_-225" style="edgeStyle=orthogonalEdgeStyle;rounded=0;orthogonalLoop=1;jettySize=auto;html=1;exitX=0.5;exitY=1;exitDx=0;exitDy=0;entryX=0;entryY=0.5;entryDx=0;entryDy=0;" edge="1" parent="lFggfK0TR-vwUHYJphF_-3" source="gwoUoAHt-CxoufIsCxu_-222" target="gwoUoAHt-CxoufIsCxu_-223">
          <mxGeometry relative="1" as="geometry" />
        </mxCell>
      </root>
    </mxGraphModel>
  </diagram>
</mxfile>
